<?xml version="1.0" standalone="no"?>
<!DOCTYPE svg PUBLIC "-//W3C//DTD SVG 20010904//EN"
 "http://www.w3.org/TR/2001/REC-SVG-20010904/DTD/svg10.dtd">
<svg version="1.0" xmlns="http://www.w3.org/2000/svg"
 width="346.000000pt" height="346.000000pt" viewBox="0 0 346.000000 346.000000"
 preserveAspectRatio="xMidYMid meet">
<metadata>
Created by potrace 1.11, written by Peter Selinger 2001-2013
</metadata>
<g transform="translate(0.000000,346.000000) scale(0.100000,-0.100000)"
fill="#000000" stroke="none">
<path d="M878 3287 c-30 -11 -588 -573 -588 -592 0 -8 9 -19 19 -23 11 -4 265
-7 565 -6 l546 0 0 -1125 0 -1124 147 -149 c85 -85 155 -148 166 -148 19 0
286 258 305 295 7 14 10 376 11 1115 0 602 0 1104 1 1116 0 20 2 20 546 20
300 -1 554 2 565 6 10 4 19 14 19 22 0 13 -573 595 -588 597 -41 5 -1699 2
-1714 -4z"/>
</g>
</svg>
